<?xml version="1.0" standalone="no"?>
<!DOCTYPE svg PUBLIC "-//W3C//DTD SVG 20010904//EN"
 "http://www.w3.org/TR/2001/REC-SVG-20010904/DTD/svg10.dtd">
<svg version="1.0" xmlns="http://www.w3.org/2000/svg"
 width="361.000000pt" height="248.000000pt" viewBox="0 0 361.000000 248.000000"
 preserveAspectRatio="xMidYMid meet">

<g transform="translate(0.000000,248.000000) scale(0.100000,-0.100000)"
fill="#000000" stroke="none">
<path d="M2389 2389 c-121 -28 -321 -160 -468 -307 -59 -59 -117 -119 -129
-134 -36 -45 -62 -45 -151 1 -44 23 -86 41 -94 41 -8 0 -20 6 -26 14 -17 20
-129 73 -225 107 -45 15 -120 43 -167 62 -131 54 -213 75 -349 92 -204 25
-241 23 -298 -14 -90 -58 -109 -90 -147 -256 -13 -55 -37 -132 -53 -172 -34
-79 -49 -145 -57 -243 -2 -36 -10 -112 -17 -170 -20 -170 -7 -506 27 -710 6
-33 15 -247 14 -338 0 -75 3 -79 84 -87 103 -10 433 -7 562 6 154 16 377 15
530 0 140 -14 435 -18 532 -6 62 7 257 -8 352 -26 45 -9 60 -8 93 7 34 15 47
16 118 5 52 -8 197 -11 425 -10 311 1 346 3 354 18 6 11 1 55 -15 126 -13 61
-26 151 -30 200 -6 100 -49 396 -63 435 -5 14 -19 75 -31 135 -35 175 -49 233
-85 345 -36 112 -79 232 -94 265 -5 11 -17 45 -27 75 -32 103 -113 238 -182
306 -9 9 -25 28 -34 42 -33 50 -150 141 -202 158 -28 9 -58 23 -67 30 -17 16
-27 16 -80 3z m136 -98 c97 -47 290 -247 342 -352 28 -59 171 -471 206 -599 9
-30 23 -95 31 -145 9 -49 22 -110 30 -135 8 -25 19 -88 26 -140 7 -52 18 -116
26 -142 8 -26 14 -90 14 -146 0 -55 7 -135 15 -176 21 -111 22 -110 -110 -121
-38 -3 -97 -9 -130 -13 -60 -7 -215 -3 -680 18 -284 13 -247 13 -510 6 -129
-3 -255 -1 -355 8 -168 15 -445 13 -580 -3 -93 -11 -453 -15 -512 -5 -21 3
-42 11 -47 18 -5 6 -12 74 -16 151 -3 77 -10 160 -15 185 -42 208 -46 645 -9
880 6 36 12 79 13 96 2 16 20 68 40 115 21 46 41 102 45 124 30 158 71 230
155 270 62 29 102 31 271 10 160 -19 322 -68 459 -137 21 -11 64 -28 96 -38
67 -21 126 -50 298 -144 138 -75 133 -75 178 2 28 47 167 191 260 268 68 56
219 140 304 168 41 13 99 4 155 -23z"/>
</g>
</svg>
